<?xml version="1.0" standalone="no"?><svg xmlns:xlink="http://www.w3.org/1999/xlink" xmlns="http://www.w3.org/2000/svg" viewBox="0 0 1000 733.3393139646316" preserveAspectRatio="xMaxYMax slice"><g transform="scale(1.4239598329410323)"><rect x="0" y="0" width="702.2727272727273" height="515" fill="#ffffff"/><rect x="58.52272727272727" y="11.704545454545455" width="23.40909090909091" height="23.40909090909091" fill="#ffffff"/><g transform="translate(58.52,23.41) scale(0.585) rotate(0)"><path d="M10 1L12.2451 7.90983H19.5106L13.6327 12.1803L15.8779 19.0902L10 14.8197L4.12215 19.0902L6.36729 12.1803L0.489441 7.90983H7.75487L10 1Z" fill="#b0bef5"/></g><g transform="translate(245.8,11.7) scale(1.1705) rotate(0)"><path d="M10 5L5 0L0 5L5 10L0 15L5 20L10 15L15 20L20 15L15 10L20 5L15 0L10 5Z" fill="#d2daf9"/></g><path d="M 386.25 11.7 A 23.41 23.41 0 0 1  409.66 35.11 L 386.25 11.7 A 23.41 23.41 0 0 0 409.66 35.11" fill="#ff809e"/><g transform="translate(433.07,11.7) scale(1.1705) rotate(0)"><path d="M10 1L12.2451 7.90983H19.5106L13.6327 12.1803L15.8779 19.0902L10 14.8197L4.12215 19.0902L6.36729 12.1803L0.489441 7.90983H7.75487L10 1Z" fill="#ffb0c2"/></g><g transform="translate(479.89,11.7) scale(1.1705) rotate(0)"><path d="M10 1L12.2451 7.90983H19.5106L13.6327 12.1803L15.8779 19.0902L10 14.8197L4.12215 19.0902L6.36729 12.1803L0.489441 7.90983H7.75487L10 1Z" fill="#5773e9"/></g><rect x="620.3409090909091" y="11.704545454545455" width="23.40909090909091" height="23.40909090909091" fill="#ffffff"/><g transform="translate(620.34,11.7) scale(0.585) rotate(0)"><path d="M10 5L5 0L0 5L5 10L0 15L5 20L10 15L15 20L20 15L15 10L20 5L15 0L10 5Z" fill="#ff3d6b"/></g><path d="M 245.8 81.93 A 23.41 23.41 0 0 0 269.21000000000004 58.52 L 245.8 58.52" fill="#395ae5"/><rect x="526.7045454545455" y="58.52272727272727" width="23.40909090909091" height="23.40909090909091" fill="#ffffff"/><g transform="translate(526.7,58.52) scale(0.585) rotate(0)"><path d="M10 5L5 0L0 5L5 10L0 15L5 20L10 15L15 20L20 15L15 10L20 5L15 0L10 5Z" fill="#4968e7"/></g><g transform="translate(526.7,70.23) scale(0.585) rotate(0)"><path d="M10 5L5 0L0 5L5 10L0 15L5 20L10 15L15 20L20 15L15 10L20 5L15 0L10 5Z" fill="#ff547d"/></g><rect x="573.5227272727274" y="58.52272727272727" width="23.40909090909091" height="23.40909090909091" fill="#ffffff"/><polygon points="573.52,58.52 585.22,70.22 573.52,70.22" fill="#c4cef7"/><path d="M 585.23 81.93 A 11.7 11.7 0 0 0 596.9300000000001 70.23 L 585.23 70.23" fill="#8ca0f0"/><rect x="58.52272727272727" y="105.3409090909091" width="23.40909090909091" height="23.40909090909091" fill="#ffffff"/><rect x="152.15909090909093" y="105.3409090909091" width="23.40909090909091" height="23.40909090909091" fill="#ffffff"/><g transform="translate(152.16,105.34) scale(0.585) rotate(0)"><path fill-rule="evenodd" clip-rule="evenodd" d="M10 20C15.5228 20 20 15.5228 20 10C20 4.47715 15.5228 0 10 0C4.47715 0 0 4.47715 0 10C0 15.5228 4.47715 20 10 20ZM10 17C13.866 17 17 13.866 17 10C17 6.13401 13.866 3 10 3C6.13401 3 3 6.13401 3 10C3 13.866 6.13401 17 10 17Z" fill="#ffe0e7"/></g><path d="M 11.7 152.16 A 23.41 23.41 0 0 1 35.11 175.57 L 11.7 175.57" fill="#ff9fb6"/><polygon points="58.52,152.16 81.93,152.16 58.52,175.57" fill="#b9c5f6"/><rect x="198.98" y="152.16" width="23.41" height="23.41" fill="#f5f7fe"/><path d="M 526.7 152.16 A 23.41 23.41 0 0 0 550.11 175.57 L 550.11 152.16" fill="#9bacf2"/><rect x="573.52" y="152.16" width="23.41" height="23.41" fill="#3c5de6"/><g transform="translate(292.61,198.98) scale(1.1705) rotate(0)"><path d="M10 1L12.2451 7.90983H19.5106L13.6327 12.1803L15.8779 19.0902L10 14.8197L4.12215 19.0902L6.36729 12.1803L0.489441 7.90983H7.75487L10 1Z" fill="#6b84ec"/></g><g transform="translate(386.25,198.98) scale(1.1705) rotate(0)"><path d="M10 5L5 0L0 5L5 10L0 15L5 20L10 15L15 20L20 15L15 10L20 5L15 0L10 5Z" fill="#3c5de6"/></g><rect x="573.5227272727274" y="198.97727272727275" width="23.40909090909091" height="23.40909090909091" fill="#ffffff"/><g transform="translate(667.16,198.98) scale(1.1705) rotate(0)"><path fill-rule="evenodd" clip-rule="evenodd" d="M10 20C15.5228 20 20 15.5228 20 10C20 4.47715 15.5228 0 10 0C4.47715 0 0 4.47715 0 10C0 15.5228 4.47715 20 10 20ZM10 17C13.866 17 17 13.866 17 10C17 6.13401 13.866 3 10 3C6.13401 3 3 6.13401 3 10C3 13.866 6.13401 17 10 17Z" fill="#ff89a5"/></g><path d="M 105.34 269.21000000000004 A 23.41 23.41 0 0 1  128.75 245.8 L 128.75 269.21000000000004" fill="#abb9f4"/><path d="M 292.61 269.21000000000004 A 23.41 23.41 0 0 1  316.02000000000004 245.8 L 316.02000000000004 269.21000000000004" fill="#b3c0f5"/><g transform="translate(339.43,245.8) scale(1.1705) rotate(0)"><path d="M10 1L12.2451 7.90983H19.5106L13.6327 12.1803L15.8779 19.0902L10 14.8197L4.12215 19.0902L6.36729 12.1803L0.489441 7.90983H7.75487L10 1Z" fill="#4060e6"/></g><rect x="526.7045454545455" y="245.79545454545456" width="23.40909090909091" height="23.40909090909091" fill="#ffffff"/><g transform="translate(538.41,245.8) scale(0.585) rotate(0)"><path d="M10 1L12.2451 7.90983H19.5106L13.6327 12.1803L15.8779 19.0902L10 14.8197L4.12215 19.0902L6.36729 12.1803L0.489441 7.90983H7.75487L10 1Z" fill="#ffe6ec"/></g><rect x="620.3409090909091" y="245.79545454545456" width="23.40909090909091" height="23.40909090909091" fill="#ffffff"/><g transform="translate(620.34,245.8) scale(0.585) rotate(0)"><path d="M19.9981 0.00193429L3.72652 -7.68637e-07L8.4784 4.75382L0 13.2345L6.76585 20L15.2462 11.5208L20 16.2746L19.9981 0.00193429Z" fill="#94a6f1"/></g><g transform="translate(632.05,257.5) scale(0.585) rotate(0)"><path fill-rule="evenodd" clip-rule="evenodd" d="M10 20C15.5228 20 20 15.5228 20 10C20 4.47715 15.5228 0 10 0C4.47715 0 0 4.47715 0 10C0 15.5228 4.47715 20 10 20ZM10 17C13.866 17 17 13.866 17 10C17 6.13401 13.866 3 10 3C6.13401 3 3 6.13401 3 10C3 13.866 6.13401 17 10 17Z" fill="#ffdbe3"/></g><polygon points="58.52,292.61 81.93,292.61 81.93,316.02000000000004" fill="#ffa2b8"/><rect x="152.15909090909093" y="292.6136363636364" width="23.40909090909091" height="23.40909090909091" fill="#ffffff"/><g transform="translate(163.86,304.32) scale(0.585) rotate(0)"><path d="M19.9981 0.00193429L3.72652 -7.68637e-07L8.4784 4.75382L0 13.2345L6.76585 20L15.2462 11.5208L20 16.2746L19.9981 0.00193429Z" fill="#ff99b1"/></g><rect x="292.61" y="292.61" width="23.41" height="23.41" fill="#ff4974"/><path d="M 339.43 292.61 A 23.41 23.41 0 0 0 362.84000000000003 316.02000000000004 L 362.84000000000003 292.61" fill="#edf0fd"/><rect x="620.3409090909091" y="292.6136363636364" width="23.40909090909091" height="23.40909090909091" fill="#ffffff"/><g transform="translate(632.05,304.32) scale(0.585) rotate(0)"><path d="M10 0L20 10L10 20L0 10L10 0Z" fill="#94a6f1"/></g><rect x="58.52" y="339.43" width="23.41" height="23.41" fill="#ff4e78"/><polygon points="152.16,339.43 175.57,362.84000000000003 152.16,362.84000000000003" fill="#b7c4f6"/><path d="M 198.98 339.43 A 23.41 23.41 0 0 1 222.39 362.84000000000003 L 198.98 362.84000000000003" fill="#2549e3"/><g transform="translate(479.89,339.43) scale(1.1705) rotate(0)"><path fill-rule="evenodd" clip-rule="evenodd" d="M10 20C15.5228 20 20 15.5228 20 10C20 4.47715 15.5228 0 10 0C4.47715 0 0 4.47715 0 10C0 15.5228 4.47715 20 10 20ZM10 17C13.866 17 17 13.866 17 10C17 6.13401 13.866 3 10 3C6.13401 3 3 6.13401 3 10C3 13.866 6.13401 17 10 17Z" fill="#516ee8"/></g><rect x="620.3409090909091" y="339.4318181818182" width="23.40909090909091" height="23.40909090909091" fill="#ffffff"/><polygon points="667.16,339.43 690.5699999999999,339.43 667.16,362.84000000000003" fill="#ff3565"/><path d="M 152.16 409.66 A 23.41 23.41 0 0 0 175.57 386.25 L 152.16 386.25" fill="#2046e2"/><rect x="573.5227272727274" y="386.25" width="23.40909090909091" height="23.40909090909091" fill="#ffffff"/><g transform="translate(573.52,386.25) scale(0.585) rotate(0)"><path fill-rule="evenodd" clip-rule="evenodd" d="M10 20C15.5228 20 20 15.5228 20 10C20 4.47715 15.5228 0 10 0C4.47715 0 0 4.47715 0 10C0 15.5228 4.47715 20 10 20ZM10 17C13.866 17 17 13.866 17 10C17 6.13401 13.866 3 10 3C6.13401 3 3 6.13401 3 10C3 13.866 6.13401 17 10 17Z" fill="#ff99b1"/></g><rect x="573.52" y="397.95" width="11.7" height="11.7" fill="#ff9bb3"/><g transform="translate(620.34,386.25) scale(1.1705) rotate(0)"><path d="M10 1L12.2451 7.90983H19.5106L13.6327 12.1803L15.8779 19.0902L10 14.8197L4.12215 19.0902L6.36729 12.1803L0.489441 7.90983H7.75487L10 1Z" fill="#fff5f7"/></g><path d="M 11.7 433.07 A 23.41 23.41 0 0 1 35.11 456.48 L 11.7 456.48" fill="#ff5880"/><rect x="198.98" y="433.07" width="23.41" height="23.41" fill="#ff97af"/><path d="M 245.8 433.07 A 23.41 23.41 0 0 0 269.21000000000004 456.48 L 269.21000000000004 433.07" fill="#ff3a69"/><g transform="translate(386.25,433.07) scale(1.1705) rotate(0)"><path fill-rule="evenodd" clip-rule="evenodd" d="M10 20C15.5228 20 20 15.5228 20 10C20 4.47715 15.5228 0 10 0C4.47715 0 0 4.47715 0 10C0 15.5228 4.47715 20 10 20ZM10 17C13.866 17 17 13.866 17 10C17 6.13401 13.866 3 10 3C6.13401 3 3 6.13401 3 10C3 13.866 6.13401 17 10 17Z" fill="#4564e7"/></g><rect x="479.8863636363636" y="433.0681818181818" width="23.40909090909091" height="23.40909090909091" fill="#ffffff"/><g transform="translate(479.89,444.77) scale(0.585) rotate(0)"><path d="M19.9981 0.00193429L3.72652 -7.68637e-07L8.4784 4.75382L0 13.2345L6.76585 20L15.2462 11.5208L20 16.2746L19.9981 0.00193429Z" fill="#ff7596"/></g><g transform="translate(526.7,433.07) scale(1.1705) rotate(0)"><path d="M10 1L12.2451 7.90983H19.5106L13.6327 12.1803L15.8779 19.0902L10 14.8197L4.12215 19.0902L6.36729 12.1803L0.489441 7.90983H7.75487L10 1Z" fill="#fff4f6"/></g><rect x="667.159090909091" y="433.0681818181818" width="23.40909090909091" height="23.40909090909091" fill="#ffffff"/><g transform="translate(667.16,433.07) scale(0.585) rotate(0)"><path d="M10 1L12.2451 7.90983H19.5106L13.6327 12.1803L15.8779 19.0902L10 14.8197L4.12215 19.0902L6.36729 12.1803L0.489441 7.90983H7.75487L10 1Z" fill="#8a9df0"/></g><rect x="105.3409090909091" y="479.8863636363636" width="23.40909090909091" height="23.40909090909091" fill="#ffffff"/><g transform="translate(245.8,479.89) scale(1.1705) rotate(0)"><path fill-rule="evenodd" clip-rule="evenodd" d="M10 20C15.5228 20 20 15.5228 20 10C20 4.47715 15.5228 0 10 0C4.47715 0 0 4.47715 0 10C0 15.5228 4.47715 20 10 20ZM10 17C13.866 17 17 13.866 17 10C17 6.13401 13.866 3 10 3C6.13401 3 3 6.13401 3 10C3 13.866 6.13401 17 10 17Z" fill="#ffdee6"/></g><polygon points="386.25,479.89 409.66,503.3 386.25,503.3" fill="#f5f7fe"/><path d="M 433.07 503.3 A 23.41 23.41 0 0 1  456.48 479.89 L 456.48 503.3" fill="#ff7a99"/><g transform="translate(526.7,479.89) scale(1.1705) rotate(0)"><path d="M10 0L20 10L10 20L0 10L10 0Z" fill="#ff4470"/></g><rect x="573.5227272727274" y="479.8863636363636" width="23.40909090909091" height="23.40909090909091" fill="#ffffff"/><g transform="translate(620.34,479.89) scale(1.1705) rotate(0)"><path d="M10 5L5 0L0 5L5 10L0 15L5 20L10 15L15 20L20 15L15 10L20 5L15 0L10 5Z" fill="#4363e7"/></g></g></svg>